<svg xmlns="http://www.w3.org/2000/svg" viewBox="0 0 1600 900" role="img" aria-label="Anime-style image of a warm Tokyo private dining room">
  <defs>
    <linearGradient id="night" x1="0" x2="1" y1="0" y2="1">
      <stop offset="0" stop-color="#15231f"/>
      <stop offset=".46" stop-color="#5d3027"/>
      <stop offset="1" stop-color="#101315"/>
    </linearGradient>
    <linearGradient id="wood" x1="0" x2="1">
      <stop offset="0" stop-color="#835735"/>
      <stop offset=".5" stop-color="#c48a4d"/>
      <stop offset="1" stop-color="#6a3f28"/>
    </linearGradient>
    <radialGradient id="bulbGlow" cx=".5" cy=".5" r=".55">
      <stop offset="0" stop-color="#ffe2a3" stop-opacity="1"/>
      <stop offset=".36" stop-color="#ffb34f" stop-opacity=".55"/>
      <stop offset="1" stop-color="#ff9d3c" stop-opacity="0"/>
    </radialGradient>
    <filter id="softShadow" x="-20%" y="-20%" width="140%" height="140%">
      <feDropShadow dx="0" dy="16" stdDeviation="14" flood-color="#080706" flood-opacity=".45"/>
    </filter>
    <filter id="lineGlow" x="-30%" y="-30%" width="160%" height="160%">
      <feDropShadow dx="0" dy="0" stdDeviation="2" flood-color="#ffd486" flood-opacity=".8"/>
    </filter>
  </defs>

  <rect width="1600" height="900" fill="url(#night)"/>
  <path d="M0 0h1600v360c-250 16-440-8-652 20-210 28-369 92-608 80C188 452 84 406 0 365Z" fill="#1a1d1f" opacity=".86"/>
  <g opacity=".5">
    <path d="M170 88h1160" stroke="#34403e" stroke-width="18" stroke-linecap="round"/>
    <path d="M250 146h960" stroke="#293030" stroke-width="14" stroke-linecap="round"/>
    <path d="M690 42v236" stroke="#2c3434" stroke-width="18" stroke-linecap="round"/>
    <path d="M940 40v255" stroke="#2c3434" stroke-width="18" stroke-linecap="round"/>
  </g>

  <g opacity=".88">
    <path d="M1030 165h390l72 430h-470Z" fill="#0f1b24" stroke="#253c4c" stroke-width="8"/>
    <path d="M1068 210h98v330h-134Z" fill="#25445f"/>
    <path d="M1195 210h98v330h-134Z" fill="#263f57"/>
    <path d="M1322 210h98v330h-134Z" fill="#20384f"/>
    <g fill="#ffd68c" opacity=".76">
      <rect x="1092" y="252" width="16" height="38" rx="3"/>
      <rect x="1130" y="322" width="14" height="30" rx="3"/>
      <rect x="1218" y="262" width="16" height="42" rx="3"/>
      <rect x="1257" y="372" width="13" height="29" rx="3"/>
      <rect x="1350" y="286" width="15" height="38" rx="3"/>
      <rect x="1388" y="410" width="14" height="31" rx="3"/>
    </g>
  </g>

  <g filter="url(#lineGlow)">
    <circle cx="505" cy="205" r="66" fill="url(#bulbGlow)"/>
    <circle cx="820" cy="165" r="58" fill="url(#bulbGlow)"/>
    <circle cx="1130" cy="126" r="54" fill="url(#bulbGlow)"/>
  </g>
  <g stroke="#151818" stroke-width="5" stroke-linecap="round">
    <path d="M505 54v130"/>
    <path d="M820 34v112"/>
    <path d="M1130 20v90"/>
  </g>
  <g fill="#ffd78a" stroke="#161616" stroke-width="5">
    <ellipse cx="505" cy="212" rx="25" ry="34"/>
    <ellipse cx="820" cy="170" rx="22" ry="31"/>
    <ellipse cx="1130" cy="132" rx="21" ry="30"/>
  </g>

  <g transform="translate(70 168)" filter="url(#softShadow)">
    <rect x="0" y="0" width="360" height="520" rx="6" fill="#3b2619"/>
    <rect x="24" y="28" width="312" height="464" rx="3" fill="#56361f"/>
    <g stroke="#82542e" stroke-width="12">
      <path d="M24 130h312"/>
      <path d="M24 250h312"/>
      <path d="M24 370h312"/>
      <path d="M128 28v464"/>
      <path d="M236 28v464"/>
    </g>
    <g fill="#3f8a58">
      <path d="M52 96c35-58 64-36 28 8 32-25 62-10 26 18-32 25-74 16-54-26Z"/>
      <path d="M168 210c18-60 72-48 42 2 34-19 63 8 18 28-43 19-72 7-60-30Z"/>
      <path d="M272 336c38-48 78-14 30 18 45-8 55 31 8 34-46 3-70-22-38-52Z"/>
    </g>
    <g fill="#d8ad63">
      <rect x="56" y="402" width="44" height="54" rx="5"/>
      <rect x="266" y="84" width="34" height="70" rx="6"/>
      <circle cx="194" cy="428" r="24"/>
    </g>
  </g>

  <g transform="translate(496 292)" filter="url(#softShadow)">
    <rect x="0" y="0" width="410" height="250" rx="8" fill="#202223"/>
    <path d="M44 48c86-36 174-28 270 6" fill="none" stroke="#f2e6cc" stroke-width="8" stroke-linecap="round"/>
    <path d="M80 100h230M80 144h180" stroke="#f2e6cc" stroke-width="9" stroke-linecap="round"/>
    <path d="M278 86c50 12 68 44 49 86-18 40-66 54-107 32" fill="none" stroke="#f2e6cc" stroke-width="6"/>
    <path d="M234 114c-28 5-49 24-57 48 34 15 71 9 97-17" fill="none" stroke="#d65843" stroke-width="6"/>
    <g stroke="#91c36f" stroke-width="8" stroke-linecap="round">
      <path d="M14 16c42 10 78 9 112-8"/>
      <path d="M284 14c44 16 78 12 110-6"/>
    </g>
  </g>

  <path d="M200 610c230-42 438-54 690-20 210 28 405 15 710-42v352H0V690c56-35 121-61 200-80Z" fill="#3d2c25"/>
  <g filter="url(#softShadow)">
    <path d="M370 606h720l215 240H170Z" fill="url(#wood)"/>
    <path d="M405 634h650M324 704h814M258 778h945" stroke="#e4a760" stroke-width="6" opacity=".38"/>
    <path d="M510 610 392 842M746 600 710 844M975 606l104 238" stroke="#6d442c" stroke-width="5" opacity=".5"/>
  </g>

  <g filter="url(#softShadow)">
    <ellipse cx="654" cy="708" rx="104" ry="36" fill="#f4e5ca"/>
    <ellipse cx="654" cy="701" rx="76" ry="21" fill="#314f45"/>
    <circle cx="624" cy="696" r="14" fill="#f2c35e"/>
    <circle cx="658" cy="708" r="18" fill="#d45542"/>
    <circle cx="696" cy="694" r="13" fill="#f7df8c"/>
    <ellipse cx="930" cy="724" rx="118" ry="40" fill="#f5e8cf"/>
    <ellipse cx="930" cy="716" rx="88" ry="24" fill="#b84837"/>
    <path d="M875 712c44-36 92-34 134-1" stroke="#f0c06c" stroke-width="16" stroke-linecap="round"/>
  </g>

  <g fill="none" stroke="#f7eddb" stroke-width="5" opacity=".86">
    <path d="M1112 470h54l-16 226c-8 18-22 18-30 0Z"/>
    <ellipse cx="1139" cy="470" rx="27" ry="8"/>
    <path d="M1162 552h46l-13 190c-7 14-20 14-27 0Z"/>
    <ellipse cx="1185" cy="552" rx="23" ry="7"/>
    <path d="M502 508h45l-13 172c-7 14-19 14-26 0Z"/>
    <ellipse cx="524" cy="508" rx="23" ry="7"/>
  </g>

  <g opacity=".62">
    <path d="M1220 610c80-62 190-52 252 22v268h-252Z" fill="#5d463d"/>
    <path d="M1268 654h92v70h-92z" fill="#e7d6bd"/>
    <path d="M1384 662h72v64h-72z" fill="#d2bb9b"/>
  </g>
</svg>
