<svg xmlns="http://www.w3.org/2000/svg" viewBox="0 0 1400 900" role="img" aria-label="Warm restaurant table scene">
  <defs>
    <linearGradient id="bg" x1="0" x2="1" y1="0" y2="1">
      <stop offset="0" stop-color="#253d32"/>
      <stop offset=".54" stop-color="#6f332b"/>
      <stop offset="1" stop-color="#171b18"/>
    </linearGradient>
    <radialGradient id="lamp" cx=".72" cy=".2" r=".38">
      <stop offset="0" stop-color="#ffd58d" stop-opacity=".95"/>
      <stop offset=".42" stop-color="#b95d37" stop-opacity=".44"/>
      <stop offset="1" stop-color="#231b19" stop-opacity="0"/>
    </radialGradient>
    <filter id="shadow" x="-20%" y="-20%" width="140%" height="140%">
      <feDropShadow dx="0" dy="18" stdDeviation="18" flood-color="#100d0b" flood-opacity=".42"/>
    </filter>
  </defs>
  <rect width="1400" height="900" fill="url(#bg)"/>
  <rect width="1400" height="900" fill="url(#lamp)"/>
  <path d="M0 650 C230 590 445 624 705 580 C995 530 1190 552 1400 490 L1400 900 L0 900 Z" fill="#51322a"/>
  <path d="M0 710 C240 648 515 680 742 640 C1010 592 1205 606 1400 552 L1400 900 L0 900 Z" fill="#2c211d" opacity=".64"/>
  <g filter="url(#shadow)">
    <ellipse cx="900" cy="625" rx="210" ry="88" fill="#f6e6ca"/>
    <ellipse cx="900" cy="615" rx="160" ry="56" fill="#c8563c"/>
    <ellipse cx="900" cy="610" rx="112" ry="35" fill="#f2c169"/>
  </g>
  <g filter="url(#shadow)">
    <ellipse cx="610" cy="705" rx="190" ry="78" fill="#f8ead4"/>
    <ellipse cx="610" cy="694" rx="128" ry="42" fill="#284d3c"/>
    <circle cx="572" cy="686" r="18" fill="#f4c16b"/>
    <circle cx="622" cy="698" r="22" fill="#d15a43"/>
    <circle cx="664" cy="681" r="16" fill="#f7dd9a"/>
  </g>
  <g filter="url(#shadow)" opacity=".95">
    <path d="M1110 380 L1172 380 L1154 635 Q1141 657 1127 635 Z" fill="#f7ecd6" opacity=".78"/>
    <ellipse cx="1141" cy="379" rx="34" ry="10" fill="#fff7e6"/>
    <rect x="1128" y="622" width="26" height="105" rx="13" fill="#f6ead2" opacity=".76"/>
    <ellipse cx="1141" cy="735" rx="62" ry="14" fill="#f6ead2" opacity=".58"/>
  </g>
  <g filter="url(#shadow)" opacity=".9">
    <path d="M760 352 L822 352 L805 594 Q791 615 777 594 Z" fill="#f6ead2" opacity=".62"/>
    <ellipse cx="791" cy="352" rx="34" ry="10" fill="#fff7e6"/>
    <rect x="778" y="584" width="26" height="92" rx="13" fill="#f6ead2" opacity=".58"/>
    <ellipse cx="791" cy="685" rx="58" ry="13" fill="#f6ead2" opacity=".46"/>
  </g>
  <g opacity=".7">
    <circle cx="1030" cy="212" r="9" fill="#ffcf82"/>
    <circle cx="1086" cy="182" r="6" fill="#ffcf82"/>
    <circle cx="1190" cy="254" r="8" fill="#ffcf82"/>
    <circle cx="1262" cy="196" r="5" fill="#ffcf82"/>
  </g>
</svg>
